# xmcd
#
# Track frame offsets:
#	150
#	14553
#	28204
#	44877
#	54508
#	68262
#	82013
#	102225
#	113315
#	125696
#	140060
#	154850
#	168476
#	180353
#	196878
#	207264
#	219899
#	234456
#	248933
#	260281
#	273613
#	293942
#	303499
#	314661
#	324730
#
# Disc length: 4509 seconds
#
# Revision: 0
# Processed by: cddbd v1.5.1PL0 Copyright (c) Steve Scherf et al.
# Submitted via: EasyCDDAExtractor 8.1.4.1
#
DISCID=76119b19
DTITLE=Various Artist - THE GREATEST CROONERS (2 CD)
DYEAR=2005
DGENRE=
TTITLE0=NAT KING COLE - When I Fall In Love
TTITLE1=DEAN MARTIN - Volare
TTITLE2=MATT MONROE - On Days Like This
TTITLE3=TONY BENNET - Chicago
TTITLE4=FRED ASTAIRE - Night and Day
TTITLE5=ANDY WILLIAMS and RPO - She'll Never Know
TTITLE6=CHET BAKER - I've Never Been In Love Before
TTITLE7=FRANK IFIELD - Crazy
TTITLE8=RONNIE HILTON - Around The World
TTITLE9=LOUIS ARMSTRONG - I'm Just A Lucky So And So
TTITLE10=DANNY WILLIAMS - I've Got You Under My Skin
TTITLE11=BING CROSBY - I Got Rhythm
TTITLE12=LOUIS PRIMA - I'm In The Mood For Love
TTITLE13=FRANKIE VAUGHAN - Unchained Melody
TTITLE14=MICHAEL HOLIDAY - Stairway Of Love
TTITLE15=AL MARTINO - Spanish Eyes
TTITLE16=JACK JONES - Angel Eyes
TTITLE17=MEL TORME - Blue Moon
TTITLE18=JOE WILLIAMS -  Darn That Dream
TTITLE19=TONY BRENT - Three Coins In The Fountain
TTITLE20=LOU RAWLS - God Bless The Child
TTITLE21=VINCE HILL - Love Letters In The Sand
TTITLE22=MALCOLM ROBERTS - I Wonder Who Kissing Her Now
TTITLE23=GORDON MCRAE - Singin' In The Rain
TTITLE24=HOWARD KEEL - Love Changes Everything
EXTD=
EXTT0=
EXTT1=
EXTT2=
EXTT3=
EXTT4=
EXTT5=
EXTT6=
EXTT7=
EXTT8=
EXTT9=
EXTT10=
EXTT11=
EXTT12=
EXTT13=
EXTT14=
EXTT15=
EXTT16=
EXTT17=
EXTT18=
EXTT19=
EXTT20=
EXTT21=
EXTT22=
EXTT23=
EXTT24=
PLAYORDER=
